<svg xmlns="http://www.w3.org/2000/svg" width="1440" height="900"><path d="M767,450L769,355L668,445Z" fill="#f3f2ea" stroke="#f3f2ea" stroke-width="1.51"/><path d="M769,355L673,351L668,445Z" fill="#f6efdf" stroke="#f6efdf" stroke-width="1.51"/><path d="M668,445L675,546L767,450Z" fill="#eef2f0" stroke="#eef2f0" stroke-width="1.51"/><path d="M767,450L864,355L769,355Z" fill="#eaeedf" stroke="#eaeedf" stroke-width="1.51"/><path d="M769,355L765,250L673,351Z" fill="#efe5cb" stroke="#efe5cb" stroke-width="1.51"/><path d="M875,451L864,355L767,450Z" fill="#e3eee6" stroke="#e3eee6" stroke-width="1.51"/><path d="M668,445L572,455L675,546Z" fill="#eeefe4" stroke="#eeefe4" stroke-width="1.51"/><path d="M569,351L572,455L668,445Z" fill="#f6edd7" stroke="#f6edd7" stroke-width="1.51"/><path d="M865,250L765,250L769,355Z" fill="#e2dbba" stroke="#e2dbba" stroke-width="1.51"/><path d="M673,351L569,351L668,445Z" fill="#f6ecd3" stroke="#f6ecd3" stroke-width="1.51"/><path d="M576,254L569,351L673,351Z" fill="#f1e0b8" stroke="#f1e0b8" stroke-width="1.51"/><path d="M675,546L773,553L767,450Z" fill="#e1f1ee" stroke="#e1f1ee" stroke-width="1.51"/><path d="M765,250L671,248L673,351Z" fill="#eeddbb" stroke="#eeddbb" stroke-width="1.51"/><path d="M773,553L875,451L767,450Z" fill="#dff0ed" stroke="#dff0ed" stroke-width="1.51"/><path d="M671,248L576,254L673,351Z" fill="#eddbb0" stroke="#eddbb0" stroke-width="1.51"/><path d="M864,355L865,250L769,355Z" fill="#e1e1c6" stroke="#e1e1c6" stroke-width="1.51"/><path d="M765,250L765,152L671,248Z" fill="#e4c69f" stroke="#e4c69f" stroke-width="1.51"/><path d="M963,348L865,250L864,355Z" fill="#d5ddc0" stroke="#d5ddc0" stroke-width="1.51"/><path d="M773,553L873,550L875,451Z" fill="#d1ede8" stroke="#d1ede8" stroke-width="1.51"/><path d="M572,455L565,550L675,546Z" fill="#e5ecdb" stroke="#e5ecdb" stroke-width="1.51"/><path d="M675,546L767,655L773,553Z" fill="#cbe8e3" stroke="#cbe8e3" stroke-width="1.51"/><path d="M475,450L565,550L572,455Z" fill="#ebe7cf" stroke="#ebe7cf" stroke-width="1.51"/><path d="M875,451L963,348L864,355Z" fill="#d7e8d7" stroke="#d7e8d7" stroke-width="1.51"/><path d="M971,445L963,348L875,451Z" fill="#cee6da" stroke="#cee6da" stroke-width="1.51"/><path d="M569,351L475,450L572,455Z" fill="#f4e7ca" stroke="#f4e7ca" stroke-width="1.51"/><path d="M464,355L475,450L569,351Z" fill="#f1e0b8" stroke="#f1e0b8" stroke-width="1.51"/><path d="M863,152L765,152L765,250Z" fill="#d6b88e" stroke="#d6b88e" stroke-width="1.51"/><path d="M671,248L572,154L576,254Z" fill="#e4c38e" stroke="#e4c38e" stroke-width="1.51"/><path d="M970,544L971,445L875,451Z" fill="#c5e6e1" stroke="#c5e6e1" stroke-width="1.51"/><path d="M565,550L665,651L675,546Z" fill="#d0e5d6" stroke="#d0e5d6" stroke-width="1.51"/><path d="M773,553L864,643L873,550Z" fill="#bce5de" stroke="#bce5de" stroke-width="1.51"/><path d="M665,651L767,655L675,546Z" fill="#c2e2da" stroke="#c2e2da" stroke-width="1.51"/><path d="M765,152L675,147L671,248Z" fill="#e0ba8e" stroke="#e0ba8e" stroke-width="1.51"/><path d="M467,252L464,355L569,351Z" fill="#ebd5a0" stroke="#ebd5a0" stroke-width="1.51"/><path d="M467,252L569,351L576,254Z" fill="#ead39c" stroke="#ead39c" stroke-width="1.51"/><path d="M767,655L864,643L773,553Z" fill="#b4e0d9" stroke="#b4e0d9" stroke-width="1.51"/><path d="M873,550L970,544L875,451Z" fill="#c4e8e1" stroke="#c4e8e1" stroke-width="1.51"/><path d="M865,250L863,152L765,250Z" fill="#d6c49b" stroke="#d6c49b" stroke-width="1.51"/><path d="M769,47L670,51L675,147Z" fill="#c49d7b" stroke="#c49d7b" stroke-width="1.51"/><path d="M964,244L863,152L865,250Z" fill="#cabe94" stroke="#cabe94" stroke-width="1.51"/><path d="M971,650L970,544L873,550Z" fill="#a5dcd3" stroke="#a5dcd3" stroke-width="1.51"/><path d="M675,147L572,154L671,248Z" fill="#dfb784" stroke="#dfb784" stroke-width="1.51"/><path d="M963,348L964,244L865,250Z" fill="#cad2ad" stroke="#cad2ad" stroke-width="1.51"/><path d="M1072,250L964,244L963,348Z" fill="#bacba4" stroke="#bacba4" stroke-width="1.51"/><path d="M565,550L571,653L665,651Z" fill="#c3dec9" stroke="#c3dec9" stroke-width="1.51"/><path d="M664,751L774,750L767,655Z" fill="#99c6c0" stroke="#99c6c0" stroke-width="1.51"/><path d="M465,644L571,653L565,550Z" fill="#c3d8bb" stroke="#c3d8bb" stroke-width="1.51"/><path d="M475,450L465,546L565,550Z" fill="#e2e0c4" stroke="#e2e0c4" stroke-width="1.51"/><path d="M375,546L465,546L475,450Z" fill="#ded8b5" stroke="#ded8b5" stroke-width="1.51"/><path d="M572,154L467,252L576,254Z" fill="#e0be80" stroke="#e0be80" stroke-width="1.51"/><path d="M464,355L370,444L475,450Z" fill="#edd9b0" stroke="#edd9b0" stroke-width="1.51"/><path d="M467,252L374,356L464,355Z" fill="#e7cd91" stroke="#e7cd91" stroke-width="1.51"/><path d="M769,47L675,147L765,152Z" fill="#cca682" stroke="#cca682" stroke-width="1.51"/><path d="M964,244L963,150L863,152Z" fill="#bfaf82" stroke="#bfaf82" stroke-width="1.51"/><path d="M1064,144L963,150L964,244Z" fill="#b1a879" stroke="#b1a879" stroke-width="1.51"/><path d="M465,546L465,644L565,550Z" fill="#cdd8b9" stroke="#cdd8b9" stroke-width="1.51"/><path d="M375,546L465,644L465,546Z" fill="#cad1aa" stroke="#cad1aa" stroke-width="1.51"/><path d="M374,356L370,444L464,355Z" fill="#e9d09f" stroke="#e9d09f" stroke-width="1.51"/><path d="M971,445L1069,353L963,348Z" fill="#c0ddc9" stroke="#c0ddc9" stroke-width="1.51"/><path d="M1071,455L1069,353L971,445Z" fill="#b7d9cd" stroke="#b7d9cd" stroke-width="1.51"/><path d="M767,655L774,750L864,643Z" fill="#9bcec7" stroke="#9bcec7" stroke-width="1.51"/><path d="M864,643L971,650L873,550Z" fill="#a1dad1" stroke="#a1dad1" stroke-width="1.51"/><path d="M664,751L767,655L665,651Z" fill="#a8cfc7" stroke="#a8cfc7" stroke-width="1.51"/><path d="M664,751L665,651L571,653Z" fill="#aacdbc" stroke="#aacdbc" stroke-width="1.51"/><path d="M970,544L1071,455L971,445Z" fill="#b5e0d8" stroke="#b5e0d8" stroke-width="1.51"/><path d="M867,754L971,650L864,643Z" fill="#88c8c0" stroke="#88c8c0" stroke-width="1.51"/><path d="M572,154L476,145L467,252Z" fill="#d7ac68" stroke="#d7ac68" stroke-width="1.51"/><path d="M467,252L376,244L374,356Z" fill="#dfbf7b" stroke="#dfbf7b" stroke-width="1.51"/><path d="M570,45L476,145L572,154Z" fill="#c89c62" stroke="#c89c62" stroke-width="1.51"/><path d="M565,751L664,751L571,653Z" fill="#9fc1ad" stroke="#9fc1ad" stroke-width="1.51"/><path d="M675,147L670,51L572,154Z" fill="#cda476" stroke="#cda476" stroke-width="1.51"/><path d="M769,47L765,152L863,152Z" fill="#c4a57f" stroke="#c4a57f" stroke-width="1.51"/><path d="M1068,548L1071,455L970,544Z" fill="#a5d8d0" stroke="#a5d8d0" stroke-width="1.51"/><path d="M866,53L769,47L863,152Z" fill="#b59b77" stroke="#b59b77" stroke-width="1.51"/><path d="M370,444L375,546L475,450Z" fill="#e4d3af" stroke="#e4d3af" stroke-width="1.51"/><path d="M971,650L1068,548L970,544Z" fill="#96d6cb" stroke="#96d6cb" stroke-width="1.51"/><path d="M963,150L866,53L863,152Z" fill="#b5a079" stroke="#b5a079" stroke-width="1.51"/><path d="M476,145L376,244L467,252Z" fill="#d7ae66" stroke="#d7ae66" stroke-width="1.51"/><path d="M374,356L275,446L370,444Z" fill="#e5c395" stroke="#e5c395" stroke-width="1.51"/><path d="M774,750L867,754L864,643Z" fill="#89c3bc" stroke="#89c3bc" stroke-width="1.51"/><path d="M775,844L867,754L774,750Z" fill="#7fb1a9" stroke="#7fb1a9" stroke-width="1.51"/><path d="M474,745L565,751L571,653Z" fill="#9ebba1" stroke="#9ebba1" stroke-width="1.51"/><path d="M664,751L665,843L774,750Z" fill="#8eb3ab" stroke="#8eb3ab" stroke-width="1.51"/><path d="M1069,353L1072,250L963,348Z" fill="#b6cdad" stroke="#b6cdad" stroke-width="1.51"/><path d="M963,150L963,53L866,53Z" fill="#a4946e" stroke="#a4946e" stroke-width="1.51"/><path d="M1168,349L1072,250L1069,353Z" fill="#a7c0a1" stroke="#a7c0a1" stroke-width="1.51"/><path d="M476,145L365,151L376,244Z" fill="#cd9b4e" stroke="#cd9b4e" stroke-width="1.51"/><path d="M670,51L570,45L572,154Z" fill="#c3996a" stroke="#c3996a" stroke-width="1.51"/><path d="M672,-53L570,45L670,51Z" fill="#ab8c6a" stroke="#ab8c6a" stroke-width="1.51"/><path d="M365,746L474,745L465,644Z" fill="#9bb08a" stroke="#9bb08a" stroke-width="1.51"/><path d="M465,644L474,745L571,653Z" fill="#a9c2a2" stroke="#a9c2a2" stroke-width="1.51"/><path d="M1064,144L963,53L963,150Z" fill="#9f966d" stroke="#9f966d" stroke-width="1.51"/><path d="M866,53L772,-48L769,47Z" fill="#a28d73" stroke="#a28d73" stroke-width="1.51"/><path d="M971,650L1071,645L1068,548Z" fill="#80cabf" stroke="#80cabf" stroke-width="1.51"/><path d="M1174,547L1168,451L1071,455Z" fill="#96c6c0" stroke="#96c6c0" stroke-width="1.51"/><path d="M1071,455L1168,451L1069,353Z" fill="#a8cdc1" stroke="#a8cdc1" stroke-width="1.51"/><path d="M1074,751L1071,645L971,650Z" fill="#64b7ad" stroke="#64b7ad" stroke-width="1.51"/><path d="M1072,250L1064,144L964,244Z" fill="#adae82" stroke="#adae82" stroke-width="1.51"/><path d="M375,546L366,649L465,644Z" fill="#bcc49a" stroke="#bcc49a" stroke-width="1.51"/><path d="M275,544L366,649L375,546Z" fill="#c3ba8f" stroke="#c3ba8f" stroke-width="1.51"/><path d="M867,754L972,753L971,650Z" fill="#70b9b1" stroke="#70b9b1" stroke-width="1.51"/><path d="M269,348L275,446L374,356Z" fill="#e0b983" stroke="#e0b983" stroke-width="1.51"/><path d="M370,444L275,544L375,546Z" fill="#d8c299" stroke="#d8c299" stroke-width="1.51"/><path d="M373,56L365,151L476,145Z" fill="#bb8942" stroke="#bb8942" stroke-width="1.51"/><path d="M570,45L465,45L476,145Z" fill="#b98f55" stroke="#b98f55" stroke-width="1.51"/><path d="M567,848L665,843L565,751Z" fill="#89a592" stroke="#89a592" stroke-width="1.51"/><path d="M565,751L665,843L664,751Z" fill="#8fb0a0" stroke="#8fb0a0" stroke-width="1.51"/><path d="M867,754L967,844L972,753Z" fill="#63a79e" stroke="#63a79e" stroke-width="1.51"/><path d="M665,843L775,844L774,750Z" fill="#84aba5" stroke="#84aba5" stroke-width="1.51"/><path d="M269,348L374,356L277,253Z" fill="#daaf6d" stroke="#daaf6d" stroke-width="1.51"/><path d="M1174,547L1071,455L1068,548Z" fill="#94cbc3" stroke="#94cbc3" stroke-width="1.51"/><path d="M1072,250L1166,149L1064,144Z" fill="#9a9769" stroke="#9a9769" stroke-width="1.51"/><path d="M1168,451L1168,349L1069,353Z" fill="#a2c4b2" stroke="#a2c4b2" stroke-width="1.51"/><path d="M769,47L672,-53L670,51Z" fill="#ac8f74" stroke="#ac8f74" stroke-width="1.51"/><path d="M570,45L474,-49L465,45Z" fill="#a3814f" stroke="#a3814f" stroke-width="1.51"/><path d="M869,-50L772,-48L866,53Z" fill="#978870" stroke="#978870" stroke-width="1.51"/><path d="M277,253L374,356L376,244Z" fill="#d8b06a" stroke="#d8b06a" stroke-width="1.51"/><path d="M772,-48L672,-53L769,47Z" fill="#a48c75" stroke="#a48c75" stroke-width="1.51"/><path d="M365,151L277,253L376,244Z" fill="#cc994b" stroke="#cc994b" stroke-width="1.51"/><path d="M275,446L275,544L370,444Z" fill="#dcbc93" stroke="#dcbc93" stroke-width="1.51"/><path d="M265,651L275,544L167,543Z" fill="#b6a57b" stroke="#b6a57b" stroke-width="1.51"/><path d="M775,844L868,848L867,754Z" fill="#73a59f" stroke="#73a59f" stroke-width="1.51"/><path d="M770,946L868,848L775,844Z" fill="#70968e" stroke="#70968e" stroke-width="1.51"/><path d="M1168,349L1166,250L1072,250Z" fill="#9db28f" stroke="#9db28f" stroke-width="1.51"/><path d="M470,844L567,848L565,751Z" fill="#889f84" stroke="#889f84" stroke-width="1.51"/><path d="M665,843L770,946L775,844Z" fill="#7b9991" stroke="#7b9991" stroke-width="1.51"/><path d="M470,844L565,751L474,745Z" fill="#8ea586" stroke="#8ea586" stroke-width="1.51"/><path d="M770,-152L670,-143L672,-53Z" fill="#a68c73" stroke="#a68c73" stroke-width="1.51"/><path d="M963,53L869,-50L866,53Z" fill="#93896c" stroke="#93896c" stroke-width="1.51"/><path d="M963,-48L869,-50L963,53Z" fill="#868167" stroke="#868167" stroke-width="1.51"/><path d="M1168,451L1268,453L1168,349Z" fill="#96baaf" stroke="#96baaf" stroke-width="1.51"/><path d="M1269,249L1166,149L1166,250Z" fill="#8c9267" stroke="#8c9267" stroke-width="1.51"/><path d="M1071,645L1174,547L1068,548Z" fill="#7ec3ba" stroke="#7ec3ba" stroke-width="1.51"/><path d="M1168,649L1174,547L1071,645Z" fill="#68b7ad" stroke="#68b7ad" stroke-width="1.51"/><path d="M672,-53L566,-55L570,45Z" fill="#a58763" stroke="#a58763" stroke-width="1.51"/><path d="M670,-143L566,-55L672,-53Z" fill="#a58969" stroke="#a58969" stroke-width="1.51"/><path d="M365,151L268,148L277,253Z" fill="#c28634" stroke="#c28634" stroke-width="1.51"/><path d="M465,45L373,56L476,145Z" fill="#b58746" stroke="#b58746" stroke-width="1.51"/><path d="M371,-55L373,56L465,45Z" fill="#9a7238" stroke="#9a7238" stroke-width="1.51"/><path d="M1064,144L1069,53L963,53Z" fill="#8f8862" stroke="#8f8862" stroke-width="1.51"/><path d="M1163,52L1069,53L1064,144Z" fill="#817d57" stroke="#817d57" stroke-width="1.51"/><path d="M366,649L365,746L465,644Z" fill="#a4b289" stroke="#a4b289" stroke-width="1.51"/><path d="M276,743L365,746L366,649Z" fill="#959a6f" stroke="#959a6f" stroke-width="1.51"/><path d="M972,753L1074,751L971,650Z" fill="#5eb2a9" stroke="#5eb2a9" stroke-width="1.51"/><path d="M1065,848L1074,751L972,753Z" fill="#479a91" stroke="#479a91" stroke-width="1.51"/><path d="M868,848L967,844L867,754Z" fill="#65a199" stroke="#65a199" stroke-width="1.51"/><path d="M365,746L470,844L474,745Z" fill="#8b9d78" stroke="#8b9d78" stroke-width="1.51"/><path d="M1069,53L963,-48L963,53Z" fill="#808061" stroke="#808061" stroke-width="1.51"/><path d="M1074,751L1168,649L1071,645Z" fill="#54aba1" stroke="#54aba1" stroke-width="1.51"/><path d="M1269,345L1166,250L1168,349Z" fill="#94ad8f" stroke="#94ad8f" stroke-width="1.51"/><path d="M1166,250L1166,149L1072,250Z" fill="#979d73" stroke="#979d73" stroke-width="1.51"/><path d="M566,-55L474,-49L570,45Z" fill="#a18156" stroke="#a18156" stroke-width="1.51"/><path d="M373,56L268,148L365,151Z" fill="#b47b30" stroke="#b47b30" stroke-width="1.51"/><path d="M169,350L172,450L269,348Z" fill="#d0a573" stroke="#d0a573" stroke-width="1.51"/><path d="M265,49L268,148L373,56Z" fill="#a56a20" stroke="#a56a20" stroke-width="1.51"/><path d="M172,450L275,446L269,348Z" fill="#d7ae80" stroke="#d7ae80" stroke-width="1.51"/><path d="M172,450L275,544L275,446Z" fill="#d1af88" stroke="#d1af88" stroke-width="1.51"/><path d="M275,544L265,651L366,649Z" fill="#b5ad7e" stroke="#b5ad7e" stroke-width="1.51"/><path d="M770,-152L672,-53L772,-48Z" fill="#a48c75" stroke="#a48c75" stroke-width="1.51"/><path d="M566,-55L475,-149L474,-49Z" fill="#9e7e4f" stroke="#9e7e4f" stroke-width="1.51"/><path d="M770,-152L772,-48L865,-147Z" fill="#9c8a72" stroke="#9c8a72" stroke-width="1.51"/><path d="M868,848L872,943L967,844Z" fill="#5e9087" stroke="#5e9087" stroke-width="1.51"/><path d="M668,948L770,946L665,843Z" fill="#7b9389" stroke="#7b9389" stroke-width="1.51"/><path d="M668,948L665,843L573,942Z" fill="#7c907f" stroke="#7c907f" stroke-width="1.51"/><path d="M573,942L665,843L567,848Z" fill="#7f9580" stroke="#7f9580" stroke-width="1.51"/><path d="M169,350L269,348L170,252Z" fill="#c99c5d" stroke="#c99c5d" stroke-width="1.51"/><path d="M1174,547L1268,453L1168,451Z" fill="#8bbab4" stroke="#8bbab4" stroke-width="1.51"/><path d="M1270,544L1268,453L1174,547Z" fill="#7eb2ac" stroke="#7eb2ac" stroke-width="1.51"/><path d="M1268,453L1269,345L1168,349Z" fill="#92b29f" stroke="#92b29f" stroke-width="1.51"/><path d="M170,252L269,348L277,253Z" fill="#c99b55" stroke="#c99b55" stroke-width="1.51"/><path d="M865,-147L772,-48L869,-50Z" fill="#978870" stroke="#978870" stroke-width="1.51"/><path d="M265,651L276,743L366,649Z" fill="#9e9c6e" stroke="#9e9c6e" stroke-width="1.51"/><path d="M365,746L368,848L470,844Z" fill="#818c66" stroke="#818c66" stroke-width="1.51"/><path d="M470,844L573,942L567,848Z" fill="#7e8f73" stroke="#7e8f73" stroke-width="1.51"/><path d="M168,751L276,743L265,651Z" fill="#88865c" stroke="#88865c" stroke-width="1.51"/><path d="M466,954L573,942L470,844Z" fill="#798565" stroke="#798565" stroke-width="1.51"/><path d="M770,946L872,943L868,848Z" fill="#688f86" stroke="#688f86" stroke-width="1.51"/><path d="M967,844L1065,848L972,753Z" fill="#4a978d" stroke="#4a978d" stroke-width="1.51"/><path d="M971,954L1065,848L967,844Z" fill="#44867a" stroke="#44867a" stroke-width="1.51"/><path d="M1074,751L1172,751L1168,649Z" fill="#3b9a92" stroke="#3b9a92" stroke-width="1.51"/><path d="M1166,149L1163,52L1064,144Z" fill="#838057" stroke="#838057" stroke-width="1.51"/><path d="M1069,53L1074,-43L963,-48Z" fill="#71765a" stroke="#71765a" stroke-width="1.51"/><path d="M963,-148L865,-147L869,-50Z" fill="#8c846b" stroke="#8c846b" stroke-width="1.51"/><path d="M1267,56L1163,52L1166,149Z" fill="#706c48" stroke="#706c48" stroke-width="1.51"/><path d="M963,-148L869,-50L963,-48Z" fill="#868167" stroke="#868167" stroke-width="1.51"/><path d="M670,-143L564,-145L566,-55Z" fill="#a58763" stroke="#a58763" stroke-width="1.51"/><path d="M474,-49L371,-55L465,45Z" fill="#987640" stroke="#987640" stroke-width="1.51"/><path d="M770,-152L564,-145L670,-143Z" fill="#a68a6e" stroke="#a68a6e" stroke-width="1.51"/><path d="M1268,453L1366,449L1269,345Z" fill="#88a89c" stroke="#88a89c" stroke-width="1.51"/><path d="M1266,646L1270,544L1174,547Z" fill="#67aaa2" stroke="#67aaa2" stroke-width="1.51"/><path d="M1266,646L1174,547L1168,649Z" fill="#5daba1" stroke="#5daba1" stroke-width="1.51"/><path d="M1163,52L1074,-43L1069,53Z" fill="#6a6f52" stroke="#6a6f52" stroke-width="1.51"/><path d="M276,743L368,848L365,746Z" fill="#85885d" stroke="#85885d" stroke-width="1.51"/><path d="M268,148L170,252L277,253Z" fill="#bd8638" stroke="#bd8638" stroke-width="1.51"/><path d="M1269,345L1269,249L1166,250Z" fill="#8ca07d" stroke="#8ca07d" stroke-width="1.51"/><path d="M1272,145L1269,249L1366,152Z" fill="#7a7449" stroke="#7a7449" stroke-width="1.51"/><path d="M172,450L167,543L275,544Z" fill="#c4a780" stroke="#c4a780" stroke-width="1.51"/><path d="M70,454L167,543L172,450Z" fill="#be9d7b" stroke="#be9d7b" stroke-width="1.51"/><path d="M70,454L172,450L169,350Z" fill="#c49c75" stroke="#c49c75" stroke-width="1.51"/><path d="M1169,848L1172,751L1074,751Z" fill="#2a8880" stroke="#2a8880" stroke-width="1.51"/><path d="M475,-149L371,-55L474,-49Z" fill="#987641" stroke="#987641" stroke-width="1.51"/><path d="M268,148L173,145L170,252Z" fill="#b07324" stroke="#b07324" stroke-width="1.51"/><path d="M268,-47L265,49L373,56Z" fill="#905e1d" stroke="#905e1d" stroke-width="1.51"/><path d="M1172,751L1266,646L1168,649Z" fill="#409991" stroke="#409991" stroke-width="1.51"/><path d="M1063,-154L963,-148L963,-48Z" fill="#797c60" stroke="#797c60" stroke-width="1.51"/><path d="M865,-147L963,-148L770,-152Z" fill="#93886e" stroke="#93886e" stroke-width="1.51"/><path d="M276,743L273,854L368,848Z" fill="#7a784c" stroke="#7a784c" stroke-width="1.51"/><path d="M167,543L172,650L265,651Z" fill="#a59a70" stroke="#a59a70" stroke-width="1.51"/><path d="M770,-152L475,-149L564,-145Z" fill="#a58763" stroke="#a58763" stroke-width="1.51"/><path d="M564,-145L475,-149L566,-55Z" fill="#a18156" stroke="#a18156" stroke-width="1.51"/><path d="M265,49L173,145L268,148Z" fill="#a2661b" stroke="#a2661b" stroke-width="1.51"/><path d="M1065,848L1169,848L1074,751Z" fill="#2f857d" stroke="#2f857d" stroke-width="1.51"/><path d="M872,943L971,954L967,844Z" fill="#53877d" stroke="#53877d" stroke-width="1.51"/><path d="M966,1046L971,954L872,943Z" fill="#53877d" stroke="#53877d" stroke-width="1.51"/><path d="M871,1052L872,943L770,946Z" fill="#688f86" stroke="#688f86" stroke-width="1.51"/><path d="M368,848L466,954L470,844Z" fill="#77815b" stroke="#77815b" stroke-width="1.51"/><path d="M667,1053L763,1052L668,948Z" fill="#7b9389" stroke="#7b9389" stroke-width="1.51"/><path d="M668,948L763,1052L770,946Z" fill="#78938b" stroke="#78938b" stroke-width="1.51"/><path d="M369,953L466,954L368,848Z" fill="#72764d" stroke="#72764d" stroke-width="1.51"/><path d="M1163,52L1166,-43L1074,-43Z" fill="#5d654b" stroke="#5d654b" stroke-width="1.51"/><path d="M1269,249L1272,145L1166,149Z" fill="#838053" stroke="#838053" stroke-width="1.51"/><path d="M1373,245L1269,249L1269,345Z" fill="#839470" stroke="#839470" stroke-width="1.51"/><path d="M1267,56L1166,-43L1163,52Z" fill="#5b6043" stroke="#5b6043" stroke-width="1.51"/><path d="M1074,-43L1063,-154L963,-48Z" fill="#71765b" stroke="#71765b" stroke-width="1.51"/><path d="M1172,751L1267,753L1266,646Z" fill="#2a8981" stroke="#2a8981" stroke-width="1.51"/><path d="M1069,954L1169,848L1065,848Z" fill="#2a746a" stroke="#2a746a" stroke-width="1.51"/><path d="M175,846L273,854L276,743Z" fill="#726c43" stroke="#726c43" stroke-width="1.51"/><path d="M265,49L168,53L173,145Z" fill="#935912" stroke="#935912" stroke-width="1.51"/><path d="M371,-55L268,-47L373,56Z" fill="#8d6126" stroke="#8d6126" stroke-width="1.51"/><path d="M277,-150L268,-47L371,-55Z" fill="#8a5b1d" stroke="#8a5b1d" stroke-width="1.51"/><path d="M1272,145L1267,56L1166,149Z" fill="#736e47" stroke="#736e47" stroke-width="1.51"/><path d="M1270,544L1366,449L1268,453Z" fill="#7ea8a2" stroke="#7ea8a2" stroke-width="1.51"/><path d="M1272,145L1368,49L1267,56Z" fill="#615b37" stroke="#615b37" stroke-width="1.51"/><path d="M1372,553L1366,449L1270,544Z" fill="#73a199" stroke="#73a199" stroke-width="1.51"/><path d="M1372,553L1270,544L1266,646Z" fill="#5e9f96" stroke="#5e9f96" stroke-width="1.51"/><path d="M1264,843L1267,753L1172,751Z" fill="#187870" stroke="#187870" stroke-width="1.51"/><path d="M167,543L74,548L172,650Z" fill="#a5946f" stroke="#a5946f" stroke-width="1.51"/><path d="M172,650L168,751L265,651Z" fill="#8d8960" stroke="#8d8960" stroke-width="1.51"/><path d="M67,349L70,454L169,350Z" fill="#bc956a" stroke="#bc956a" stroke-width="1.51"/><path d="M67,349L169,350L72,255Z" fill="#b58c55" stroke="#b58c55" stroke-width="1.51"/><path d="M667,1053L668,948L569,1047Z" fill="#7c907e" stroke="#7c907e" stroke-width="1.51"/><path d="M72,255L169,350L170,252Z" fill="#b78a4a" stroke="#b78a4a" stroke-width="1.51"/><path d="M175,-54L168,53L265,49Z" fill="#7f4c10" stroke="#7f4c10" stroke-width="1.51"/><path d="M1167,-144L1074,-43L1166,-43Z" fill="#5d654b" stroke="#5d654b" stroke-width="1.51"/><path d="M1167,-144L1063,-154L1074,-43Z" fill="#636b50" stroke="#636b50" stroke-width="1.51"/><path d="M963,-148L1063,-154L770,-152Z" fill="#868167" stroke="#868167" stroke-width="1.51"/><path d="M68,643L168,751L172,650Z" fill="#837f59" stroke="#837f59" stroke-width="1.51"/><path d="M971,954L1069,954L1065,848Z" fill="#3a7c70" stroke="#3a7c70" stroke-width="1.51"/><path d="M1169,848L1264,843L1172,751Z" fill="#16756d" stroke="#16756d" stroke-width="1.51"/><path d="M1072,1042L1069,954L971,954Z" fill="#3a7c70" stroke="#3a7c70" stroke-width="1.51"/><path d="M475,-149L369,-150L371,-55Z" fill="#957038" stroke="#957038" stroke-width="1.51"/><path d="M70,52L65,145L168,53Z" fill="#814a09" stroke="#814a09" stroke-width="1.51"/><path d="M770,-152L369,-150L475,-149Z" fill="#a18256" stroke="#a18256" stroke-width="1.51"/><path d="M277,-150L369,-150L770,-152Z" fill="#9c7a48" stroke="#9c7a48" stroke-width="1.51"/><path d="M569,1047L668,948L573,942Z" fill="#7c8f79" stroke="#7c8f79" stroke-width="1.51"/><path d="M273,854L369,953L368,848Z" fill="#706d41" stroke="#706d41" stroke-width="1.51"/><path d="M265,946L369,953L273,854Z" fill="#6b6235" stroke="#6b6235" stroke-width="1.51"/><path d="M569,1047L573,942L466,954Z" fill="#7a896c" stroke="#7a896c" stroke-width="1.51"/><path d="M72,255L170,252L173,145Z" fill="#ac752e" stroke="#ac752e" stroke-width="1.51"/><path d="M1366,449L1373,353L1269,345Z" fill="#86a08d" stroke="#86a08d" stroke-width="1.51"/><path d="M70,454L74,548L167,543Z" fill="#b09676" stroke="#b09676" stroke-width="1.51"/><path d="M466,1051L569,1047L466,954Z" fill="#798564" stroke="#798564" stroke-width="1.51"/><path d="M65,145L72,255L173,145Z" fill="#9d641c" stroke="#9d641c" stroke-width="1.51"/><path d="M763,1052L871,1052L770,946Z" fill="#6e9188" stroke="#6e9188" stroke-width="1.51"/><path d="M667,1053L871,1052L763,1052Z" fill="#73928a" stroke="#73928a" stroke-width="1.51"/><path d="M1366,449L1472,449L1373,353Z" fill="#7f978a" stroke="#7f978a" stroke-width="1.51"/><path d="M1372,654L1372,553L1266,646Z" fill="#4c9389" stroke="#4c9389" stroke-width="1.51"/><path d="M1373,353L1373,245L1269,345Z" fill="#829577" stroke="#829577" stroke-width="1.51"/><path d="M871,1052L966,1046L872,943Z" fill="#5b8b80" stroke="#5b8b80" stroke-width="1.51"/><path d="M1266,-50L1167,-144L1166,-43Z" fill="#535b41" stroke="#535b41" stroke-width="1.51"/><path d="M1373,245L1366,152L1269,249Z" fill="#7a7a51" stroke="#7a7a51" stroke-width="1.51"/><path d="M-27,555L74,548L70,454Z" fill="#a18e73" stroke="#a18e73" stroke-width="1.51"/><path d="M-27,555L68,643L74,548Z" fill="#8e8769" stroke="#8e8769" stroke-width="1.51"/><path d="M74,548L68,643L172,650Z" fill="#938b67" stroke="#938b67" stroke-width="1.51"/><path d="M369,953L466,1051L466,954Z" fill="#747c56" stroke="#747c56" stroke-width="1.51"/><path d="M569,1047L466,1051L667,1053Z" fill="#7c8d73" stroke="#7c8d73" stroke-width="1.51"/><path d="M371,1054L466,1051L369,953Z" fill="#72764d" stroke="#72764d" stroke-width="1.51"/><path d="M1267,753L1372,654L1266,646Z" fill="#31877e" stroke="#31877e" stroke-width="1.51"/><path d="M1471,547L1472,449L1366,449Z" fill="#73928a" stroke="#73928a" stroke-width="1.51"/><path d="M1365,752L1372,654L1267,753Z" fill="#1e786f" stroke="#1e786f" stroke-width="1.51"/><path d="M1170,950L1169,848L1069,954Z" fill="#1f6b60" stroke="#1f6b60" stroke-width="1.51"/><path d="M1262,949L1264,843L1169,848Z" fill="#0d5f56" stroke="#0d5f56" stroke-width="1.51"/><path d="M168,751L175,846L276,743Z" fill="#746f47" stroke="#746f47" stroke-width="1.51"/><path d="M66,844L175,846L168,751Z" fill="#615b38" stroke="#615b38" stroke-width="1.51"/><path d="M168,53L65,145L173,145Z" fill="#91560f" stroke="#91560f" stroke-width="1.51"/><path d="M-31,353L-28,449L67,349Z" fill="#a68865" stroke="#a68865" stroke-width="1.51"/><path d="M67,349L-28,449L70,454Z" fill="#ae8f70" stroke="#ae8f70" stroke-width="1.51"/><path d="M175,-54L265,49L268,-47Z" fill="#7f4e13" stroke="#7f4e13" stroke-width="1.51"/><path d="M1266,-50L1166,-43L1267,56Z" fill="#4f563c" stroke="#4f563c" stroke-width="1.51"/><path d="M369,-150L277,-150L371,-55Z" fill="#8d6227" stroke="#8d6227" stroke-width="1.51"/><path d="M1063,-154L277,-150L770,-152Z" fill="#a68b73" stroke="#a68b73" stroke-width="1.51"/><path d="M1362,-46L1266,-50L1267,56Z" fill="#464b32" stroke="#464b32" stroke-width="1.51"/><path d="M175,945L265,946L273,854Z" fill="#62572c" stroke="#62572c" stroke-width="1.51"/><path d="M1169,1042L1170,950L1069,954Z" fill="#1f6b60" stroke="#1f6b60" stroke-width="1.51"/><path d="M175,-143L175,-54L268,-47Z" fill="#7a4a0f" stroke="#7a4a0f" stroke-width="1.51"/><path d="M966,1046L1072,1042L971,954Z" fill="#428175" stroke="#428175" stroke-width="1.51"/><path d="M1169,1042L1072,1042L966,1046Z" fill="#31766a" stroke="#31766a" stroke-width="1.51"/><path d="M1264,843L1365,752L1267,753Z" fill="#0c6d64" stroke="#0c6d64" stroke-width="1.51"/><path d="M1364,854L1365,752L1264,843Z" fill="#015f56" stroke="#015f56" stroke-width="1.51"/><path d="M1366,152L1368,49L1272,145Z" fill="#655e37" stroke="#655e37" stroke-width="1.51"/><path d="M1466,52L1368,49L1366,152Z" fill="#564d28" stroke="#564d28" stroke-width="1.51"/><path d="M72,-43L70,52L168,53Z" fill="#6e3f08" stroke="#6e3f08" stroke-width="1.51"/><path d="M270,1048L371,1054L369,953Z" fill="#6e693e" stroke="#6e693e" stroke-width="1.51"/><path d="M466,1051L371,1054L667,1053Z" fill="#798564" stroke="#798564" stroke-width="1.51"/><path d="M175,846L175,945L273,854Z" fill="#61562d" stroke="#61562d" stroke-width="1.51"/><path d="M265,946L270,1048L369,953Z" fill="#6b6235" stroke="#6b6235" stroke-width="1.51"/><path d="M68,643L68,755L168,751Z" fill="#70704f" stroke="#70704f" stroke-width="1.51"/><path d="M-29,653L68,755L68,643Z" fill="#6c7153" stroke="#6c7153" stroke-width="1.51"/><path d="M-31,353L67,349L-33,255Z" fill="#9f7e50" stroke="#9f7e50" stroke-width="1.51"/><path d="M67,349L72,255L-33,255Z" fill="#a27d46" stroke="#a27d46" stroke-width="1.51"/><path d="M-33,255L72,255L-28,154Z" fill="#90652a" stroke="#90652a" stroke-width="1.51"/><path d="M1471,547L1372,553L1463,646Z" fill="#54897e" stroke="#54897e" stroke-width="1.51"/><path d="M1471,547L1366,449L1372,553Z" fill="#6d968d" stroke="#6d968d" stroke-width="1.51"/><path d="M1373,353L1473,344L1373,245Z" fill="#7c8a6a" stroke="#7c8a6a" stroke-width="1.51"/><path d="M1373,245L1468,244L1366,152Z" fill="#727045" stroke="#727045" stroke-width="1.51"/><path d="M1472,449L1473,344L1373,353Z" fill="#7c8f7b" stroke="#7c8f7b" stroke-width="1.51"/><path d="M-28,449L-27,555L70,454Z" fill="#a08b73" stroke="#a08b73" stroke-width="1.51"/><path d="M-29,653L-27,555L-126,646Z" fill="#7a7d61" stroke="#7a7d61" stroke-width="1.51"/><path d="M1473,344L1468,244L1373,245Z" fill="#757e59" stroke="#757e59" stroke-width="1.51"/><path d="M1463,646L1372,553L1372,654Z" fill="#48897d" stroke="#48897d" stroke-width="1.51"/><path d="M-128,545L-27,555L-28,449Z" fill="#988970" stroke="#988970" stroke-width="1.51"/><path d="M-28,154L72,255L65,145Z" fill="#905d1b" stroke="#905d1b" stroke-width="1.51"/><path d="M69,948L175,945L175,846Z" fill="#534822" stroke="#534822" stroke-width="1.51"/><path d="M1364,-144L1262,-145L1266,-50Z" fill="#464c32" stroke="#464c32" stroke-width="1.51"/><path d="M1266,-50L1262,-145L1167,-144Z" fill="#4f563c" stroke="#4f563c" stroke-width="1.51"/><path d="M1167,-144L1262,-145L1063,-154Z" fill="#586147" stroke="#586147" stroke-width="1.51"/><path d="M277,-150L175,-143L268,-47Z" fill="#804f13" stroke="#804f13" stroke-width="1.51"/><path d="M175,-54L72,-43L168,53Z" fill="#6e4008" stroke="#6e4008" stroke-width="1.51"/><path d="M1170,950L1262,949L1169,848Z" fill="#126055" stroke="#126055" stroke-width="1.51"/><path d="M1169,1042L1262,949L1170,950Z" fill="#126055" stroke="#126055" stroke-width="1.51"/><path d="M1072,1042L1169,1042L1069,954Z" fill="#287065" stroke="#287065" stroke-width="1.51"/><path d="M1264,1045L1169,1042L1363,1052Z" fill="#06554b" stroke="#06554b" stroke-width="1.51"/><path d="M1465,754L1372,654L1365,752Z" fill="#1b6e64" stroke="#1b6e64" stroke-width="1.51"/><path d="M1465,754L1463,646L1372,654Z" fill="#2b7367" stroke="#2b7367" stroke-width="1.51"/><path d="M1368,49L1362,-46L1267,56Z" fill="#494a2e" stroke="#494a2e" stroke-width="1.51"/><path d="M1464,-46L1362,-46L1368,49Z" fill="#3d3d23" stroke="#3d3d23" stroke-width="1.51"/><path d="M66,-147L72,-43L175,-54Z" fill="#683c07" stroke="#683c07" stroke-width="1.51"/><path d="M-32,56L-28,154L65,145Z" fill="#78470d" stroke="#78470d" stroke-width="1.51"/><path d="M1262,949L1364,854L1264,843Z" fill="#01554b" stroke="#01554b" stroke-width="1.51"/><path d="M1361,951L1364,854L1262,949Z" fill="#014c41" stroke="#014c41" stroke-width="1.51"/><path d="M175,945L270,1048L265,946Z" fill="#62572c" stroke="#62572c" stroke-width="1.51"/><path d="M-32,56L65,145L70,52Z" fill="#744309" stroke="#744309" stroke-width="1.51"/><path d="M175,945L168,1049L270,1048Z" fill="#5d5228" stroke="#5d5228" stroke-width="1.51"/><path d="M68,755L66,844L168,751Z" fill="#615f3e" stroke="#615f3e" stroke-width="1.51"/><path d="M-23,842L66,844L68,755Z" fill="#4d4f33" stroke="#4d4f33" stroke-width="1.51"/><path d="M-123,453L-28,449L-31,353Z" fill="#a68a6e" stroke="#a68a6e" stroke-width="1.51"/><path d="M-27,555L-29,653L68,643Z" fill="#7b7d61" stroke="#7b7d61" stroke-width="1.51"/><path d="M1565,146L1473,144L1468,244Z" fill="#6a5e31" stroke="#6a5e31" stroke-width="1.51"/><path d="M1468,244L1473,144L1366,152Z" fill="#6a5f32" stroke="#6a5f32" stroke-width="1.51"/><path d="M-29,653L-24,755L68,755Z" fill="#5a6348" stroke="#5a6348" stroke-width="1.51"/><path d="M66,844L69,948L175,846Z" fill="#504826" stroke="#504826" stroke-width="1.51"/><path d="M1473,144L1466,52L1366,152Z" fill="#5b4f28" stroke="#5b4f28" stroke-width="1.51"/><path d="M1362,-46L1364,-144L1266,-50Z" fill="#43472d" stroke="#43472d" stroke-width="1.51"/><path d="M1364,854L1465,754L1365,752Z" fill="#075d53" stroke="#075d53" stroke-width="1.51"/><path d="M1563,552L1562,452L1471,547Z" fill="#6a9086" stroke="#6a9086" stroke-width="1.51"/><path d="M72,-43L-32,56L70,52Z" fill="#613807" stroke="#613807" stroke-width="1.51"/><path d="M-132,350L-31,353L-33,255Z" fill="#9f7f50" stroke="#9f7f50" stroke-width="1.51"/><path d="M-34,-51L-32,56L72,-43Z" fill="#543005" stroke="#543005" stroke-width="1.51"/><path d="M1169,1042L1264,1045L1262,949Z" fill="#0c5b50" stroke="#0c5b50" stroke-width="1.51"/><path d="M1364,854L1470,850L1465,754Z" fill="#014f45" stroke="#014f45" stroke-width="1.51"/><path d="M1363,1052L1169,1042L966,1046Z" fill="#18655b" stroke="#18655b" stroke-width="1.51"/><path d="M1563,552L1471,547L1563,645Z" fill="#54887d" stroke="#54887d" stroke-width="1.51"/><path d="M1471,547L1562,452L1472,449Z" fill="#739289" stroke="#739289" stroke-width="1.51"/><path d="M1472,449L1572,355L1473,344Z" fill="#7c8f7b" stroke="#7c8f7b" stroke-width="1.51"/><path d="M1473,344L1567,252L1468,244Z" fill="#757e59" stroke="#757e59" stroke-width="1.51"/><path d="M1473,144L1564,52L1466,52Z" fill="#524722" stroke="#524722" stroke-width="1.51"/><path d="M1464,-46L1364,-144L1362,-46Z" fill="#3d3d23" stroke="#3d3d23" stroke-width="1.51"/><path d="M1262,-145L1468,-154L1063,-154Z" fill="#4a5037" stroke="#4a5037" stroke-width="1.51"/><path d="M-132,350L-123,453L-31,353Z" fill="#a58865" stroke="#a58865" stroke-width="1.51"/><path d="M-29,653L-126,747L-24,755Z" fill="#5a6349" stroke="#5a6349" stroke-width="1.51"/><path d="M-132,350L-33,255L-123,251Z" fill="#9a7844" stroke="#9a7844" stroke-width="1.51"/><path d="M1264,1045L1361,951L1262,949Z" fill="#015146" stroke="#015146" stroke-width="1.51"/><path d="M-22,942L69,948L66,844Z" fill="#403c1e" stroke="#403c1e" stroke-width="1.51"/><path d="M270,1048L168,1049L371,1054Z" fill="#675c2f" stroke="#675c2f" stroke-width="1.51"/><path d="M69,948L168,1049L175,945Z" fill="#534722" stroke="#534722" stroke-width="1.51"/><path d="M-123,251L-33,255L-28,154Z" fill="#8f642a" stroke="#8f642a" stroke-width="1.51"/><path d="M277,-150L66,-147L175,-143Z" fill="#74440c" stroke="#74440c" stroke-width="1.51"/><path d="M175,-143L66,-147L175,-54Z" fill="#6e4008" stroke="#6e4008" stroke-width="1.51"/><path d="M1562,452L1572,355L1472,449Z" fill="#7b9284" stroke="#7b9284" stroke-width="1.51"/><path d="M-128,151L-123,251L-28,154Z" fill="#89591b" stroke="#89591b" stroke-width="1.51"/><path d="M1562,452L1563,552L1572,355Z" fill="#7a948b" stroke="#7a948b" stroke-width="1.51"/><path d="M1563,645L1471,547L1463,646Z" fill="#488478" stroke="#488478" stroke-width="1.51"/><path d="M-123,453L-128,545L-28,449Z" fill="#a08a73" stroke="#a08a73" stroke-width="1.51"/><path d="M-24,755L-23,842L68,755Z" fill="#4e5339" stroke="#4e5339" stroke-width="1.51"/><path d="M-132,350L-128,545L-123,453Z" fill="#a68c76" stroke="#a68c76" stroke-width="1.51"/><path d="M1572,355L1567,252L1473,344Z" fill="#798666" stroke="#798666" stroke-width="1.51"/><path d="M-126,846L-23,842L-24,755Z" fill="#464b32" stroke="#464b32" stroke-width="1.51"/><path d="M1466,52L1464,-46L1368,49Z" fill="#3f3c1f" stroke="#3f3c1f" stroke-width="1.51"/><path d="M1564,52L1464,-46L1466,52Z" fill="#3f3b1e" stroke="#3f3b1e" stroke-width="1.51"/><path d="M1563,744L1563,645L1463,646Z" fill="#2d7368" stroke="#2d7368" stroke-width="1.51"/><path d="M1463,949L1470,850L1364,854Z" fill="#004035" stroke="#004035" stroke-width="1.51"/><path d="M1463,949L1364,854L1361,951Z" fill="#004237" stroke="#004237" stroke-width="1.51"/><path d="M1563,552L1563,645L1572,355Z" fill="#6a9086" stroke="#6a9086" stroke-width="1.51"/><path d="M1563,744L1463,646L1465,754Z" fill="#1d695f" stroke="#1d695f" stroke-width="1.51"/><path d="M-32,56L-128,151L-28,154Z" fill="#77480d" stroke="#77480d" stroke-width="1.51"/><path d="M-24,-143L-34,-51L72,-43Z" fill="#553005" stroke="#553005" stroke-width="1.51"/><path d="M-128,545L-126,646L-27,555Z" fill="#868267" stroke="#868267" stroke-width="1.51"/><path d="M-126,747L-126,646L-134,943Z" fill="#4d543a" stroke="#4d543a" stroke-width="1.51"/><path d="M1567,252L1565,146L1468,244Z" fill="#6e6a3f" stroke="#6e6a3f" stroke-width="1.51"/><path d="M1572,355L1565,146L1567,252Z" fill="#72764d" stroke="#72764d" stroke-width="1.51"/><path d="M-127,50L-128,151L-32,56Z" fill="#6e3f08" stroke="#6e3f08" stroke-width="1.51"/><path d="M-123,251L-128,151L-132,350Z" fill="#956f37" stroke="#956f37" stroke-width="1.51"/><path d="M1569,848L1563,744L1465,754Z" fill="#08584d" stroke="#08584d" stroke-width="1.51"/><path d="M1563,645L1569,848L1572,355Z" fill="#478377" stroke="#478377" stroke-width="1.51"/><path d="M1572,355L1564,52L1565,146Z" fill="#6b6033" stroke="#6b6033" stroke-width="1.51"/><path d="M1565,146L1564,52L1473,144Z" fill="#5a4e26" stroke="#5a4e26" stroke-width="1.51"/><path d="M-23,842L-22,942L66,844Z" fill="#3e3e23" stroke="#3e3e23" stroke-width="1.51"/><path d="M-126,646L-126,747L-29,653Z" fill="#666c52" stroke="#666c52" stroke-width="1.51"/><path d="M-126,846L-126,747L-134,943Z" fill="#41442a" stroke="#41442a" stroke-width="1.51"/><path d="M1264,1045L1363,1052L1361,951Z" fill="#014c41" stroke="#014c41" stroke-width="1.51"/><path d="M1470,850L1569,848L1465,754Z" fill="#014f44" stroke="#014f44" stroke-width="1.51"/><path d="M871,1052L1363,1052L966,1046Z" fill="#32776b" stroke="#32776b" stroke-width="1.51"/><path d="M1471,1053L1363,1052L871,1052Z" fill="#0c5a50" stroke="#0c5a50" stroke-width="1.51"/><path d="M1471,1053L871,1052L667,1053Z" fill="#428175" stroke="#428175" stroke-width="1.51"/><path d="M-123,-46L-127,50L-32,56Z" fill="#5a3306" stroke="#5a3306" stroke-width="1.51"/><path d="M-128,151L-134,-147L-132,350Z" fill="#77470d" stroke="#77470d" stroke-width="1.51"/><path d="M-126,846L-22,942L-23,842Z" fill="#3c3d22" stroke="#3c3d22" stroke-width="1.51"/><path d="M69,948L69,1051L168,1049Z" fill="#4c4321" stroke="#4c4321" stroke-width="1.51"/><path d="M-34,1045L69,1051L69,948Z" fill="#3f3c1e" stroke="#3f3c1e" stroke-width="1.51"/><path d="M168,1049L69,1051L371,1054Z" fill="#5d5128" stroke="#5d5128" stroke-width="1.51"/><path d="M-34,-51L-123,-46L-32,56Z" fill="#543005" stroke="#543005" stroke-width="1.51"/><path d="M66,-147L-24,-143L72,-43Z" fill="#5b3406" stroke="#5b3406" stroke-width="1.51"/><path d="M1363,1052L1463,949L1361,951Z" fill="#004237" stroke="#004237" stroke-width="1.51"/><path d="M1562,-51L1468,-154L1464,-46Z" fill="#39371d" stroke="#39371d" stroke-width="1.51"/><path d="M1464,-46L1468,-154L1364,-144Z" fill="#39381e" stroke="#39381e" stroke-width="1.51"/><path d="M1364,-144L1468,-154L1262,-145Z" fill="#404228" stroke="#404228" stroke-width="1.51"/><path d="M-134,-147L-123,-46L-34,-51Z" fill="#543005" stroke="#543005" stroke-width="1.51"/><path d="M-22,942L-34,1045L69,948Z" fill="#3a381d" stroke="#3a381d" stroke-width="1.51"/><path d="M-126,747L-126,846L-24,755Z" fill="#4c5339" stroke="#4c5339" stroke-width="1.51"/><path d="M-134,943L-126,646L-128,545Z" fill="#5c654b" stroke="#5c654b" stroke-width="1.51"/><path d="M1564,52L1562,-51L1464,-46Z" fill="#39371d" stroke="#39371d" stroke-width="1.51"/><path d="M1566,-155L1562,-51L1564,52Z" fill="#39371d" stroke="#39371d" stroke-width="1.51"/><path d="M1568,948L1569,848L1470,850Z" fill="#004034" stroke="#004034" stroke-width="1.51"/><path d="M1563,744L1569,848L1563,645Z" fill="#136157" stroke="#136157" stroke-width="1.51"/><path d="M1568,948L1470,850L1463,949Z" fill="#003c30" stroke="#003c30" stroke-width="1.51"/><path d="M-134,943L-34,1045L-22,942Z" fill="#39371d" stroke="#39371d" stroke-width="1.51"/><path d="M371,1054L1471,1053L667,1053Z" fill="#688f86" stroke="#688f86" stroke-width="1.51"/><path d="M1363,1052L1471,1053L1463,949Z" fill="#003d31" stroke="#003d31" stroke-width="1.51"/><path d="M1471,1053L1568,948L1463,949Z" fill="#003c30" stroke="#003c30" stroke-width="1.51"/><path d="M-126,846L-134,943L-22,942Z" fill="#39371d" stroke="#39371d" stroke-width="1.51"/><path d="M-132,350L-134,943L-128,545Z" fill="#7c7e62" stroke="#7c7e62" stroke-width="1.51"/><path d="M1562,-51L1566,-155L1468,-154Z" fill="#39371d" stroke="#39371d" stroke-width="1.51"/><path d="M1468,-154L1566,-155L1063,-154Z" fill="#404228" stroke="#404228" stroke-width="1.51"/><path d="M1572,355L1566,-155L1564,52Z" fill="#524722" stroke="#524722" stroke-width="1.51"/><path d="M-24,-143L-134,-147L-34,-51Z" fill="#543005" stroke="#543005" stroke-width="1.51"/><path d="M-123,-46L-134,-147L-127,50Z" fill="#543005" stroke="#543005" stroke-width="1.51"/><path d="M-127,50L-134,-147L-128,151Z" fill="#593306" stroke="#593306" stroke-width="1.51"/><path d="M-132,350L-134,-147L-134,943Z" fill="#a58864" stroke="#a58864" stroke-width="1.51"/><path d="M66,-147L-134,-147L-24,-143Z" fill="#543005" stroke="#543005" stroke-width="1.51"/><path d="M277,-150L-134,-147L66,-147Z" fill="#613807" stroke="#613807" stroke-width="1.51"/><path d="M-134,943L-124,1046L-34,1045Z" fill="#39371d" stroke="#39371d" stroke-width="1.51"/><path d="M-34,1045L-124,1046L69,1051Z" fill="#39371d" stroke="#39371d" stroke-width="1.51"/><path d="M1471,1053L1567,1049L1568,948Z" fill="#003c30" stroke="#003c30" stroke-width="1.51"/><path d="M1568,948L1567,1049L1569,848Z" fill="#003c30" stroke="#003c30" stroke-width="1.51"/></svg>